<mxfile host="app.diagrams.net" modified="2021-06-16T09:05:19.746Z" agent="5.0 (Windows NT 10.0; Win64; x64) AppleWebKit/537.36 (KHTML, like Gecko) Chrome/91.0.4472.106 Safari/537.36" etag="6DoVAjAtrlRiL-2Q3tMZ" version="14.7.9" type="github">
  <diagram id="lKoHrc5MSymKsgjGN5dv" name="Page-1">
    <mxGraphModel dx="5549" dy="450" grid="1" gridSize="10" guides="1" tooltips="1" connect="1" arrows="1" fold="1" page="1" pageScale="1" pageWidth="4681" pageHeight="3300" background="#ffffff" math="0" shadow="0">
      <root>
        <mxCell id="0" />
        <mxCell id="1" parent="0" />
        <mxCell id="k62wVjFiB16d4o9aMP6C-8" style="edgeStyle=orthogonalEdgeStyle;rounded=0;orthogonalLoop=1;jettySize=auto;html=1;entryX=0.5;entryY=0;entryDx=0;entryDy=0;" parent="1" source="k62wVjFiB16d4o9aMP6C-5" target="k62wVjFiB16d4o9aMP6C-6" edge="1">
          <mxGeometry relative="1" as="geometry" />
        </mxCell>
        <mxCell id="k62wVjFiB16d4o9aMP6C-9" style="edgeStyle=orthogonalEdgeStyle;rounded=0;orthogonalLoop=1;jettySize=auto;html=1;entryX=0.5;entryY=0;entryDx=0;entryDy=0;" parent="1" source="k62wVjFiB16d4o9aMP6C-5" target="k62wVjFiB16d4o9aMP6C-7" edge="1">
          <mxGeometry relative="1" as="geometry" />
        </mxCell>
        <mxCell id="k62wVjFiB16d4o9aMP6C-5" value="&lt;h1&gt;Improvement in Food Resources&lt;/h1&gt;" style="rounded=0;whiteSpace=wrap;html=1;" parent="1" vertex="1">
          <mxGeometry x="180" y="40" width="480" height="60" as="geometry" />
        </mxCell>
        <mxCell id="k62wVjFiB16d4o9aMP6C-13" style="edgeStyle=orthogonalEdgeStyle;rounded=0;orthogonalLoop=1;jettySize=auto;html=1;exitX=0.5;exitY=1;exitDx=0;exitDy=0;" parent="1" source="k62wVjFiB16d4o9aMP6C-6" target="k62wVjFiB16d4o9aMP6C-10" edge="1">
          <mxGeometry relative="1" as="geometry" />
        </mxCell>
        <mxCell id="k62wVjFiB16d4o9aMP6C-14" style="edgeStyle=orthogonalEdgeStyle;rounded=0;orthogonalLoop=1;jettySize=auto;html=1;entryX=0.5;entryY=0;entryDx=0;entryDy=0;" parent="1" source="k62wVjFiB16d4o9aMP6C-6" target="k62wVjFiB16d4o9aMP6C-12" edge="1">
          <mxGeometry relative="1" as="geometry" />
        </mxCell>
        <mxCell id="k62wVjFiB16d4o9aMP6C-15" style="edgeStyle=orthogonalEdgeStyle;rounded=0;orthogonalLoop=1;jettySize=auto;html=1;entryX=0.5;entryY=0;entryDx=0;entryDy=0;" parent="1" source="k62wVjFiB16d4o9aMP6C-6" target="k62wVjFiB16d4o9aMP6C-11" edge="1">
          <mxGeometry relative="1" as="geometry" />
        </mxCell>
        <mxCell id="k62wVjFiB16d4o9aMP6C-6" value="&lt;h2&gt;Agriculture&lt;/h2&gt;" style="rounded=0;whiteSpace=wrap;html=1;" parent="1" vertex="1">
          <mxGeometry x="40" y="140" width="240" height="50" as="geometry" />
        </mxCell>
        <mxCell id="k62wVjFiB16d4o9aMP6C-20" style="edgeStyle=orthogonalEdgeStyle;rounded=0;orthogonalLoop=1;jettySize=auto;html=1;entryX=0.5;entryY=0;entryDx=0;entryDy=0;" parent="1" source="k62wVjFiB16d4o9aMP6C-7" target="k62wVjFiB16d4o9aMP6C-16" edge="1">
          <mxGeometry relative="1" as="geometry" />
        </mxCell>
        <mxCell id="k62wVjFiB16d4o9aMP6C-21" style="edgeStyle=orthogonalEdgeStyle;rounded=0;orthogonalLoop=1;jettySize=auto;html=1;entryX=0.5;entryY=0;entryDx=0;entryDy=0;" parent="1" source="k62wVjFiB16d4o9aMP6C-7" target="k62wVjFiB16d4o9aMP6C-17" edge="1">
          <mxGeometry relative="1" as="geometry" />
        </mxCell>
        <mxCell id="k62wVjFiB16d4o9aMP6C-22" style="edgeStyle=orthogonalEdgeStyle;rounded=0;orthogonalLoop=1;jettySize=auto;html=1;entryX=0.5;entryY=0;entryDx=0;entryDy=0;" parent="1" source="k62wVjFiB16d4o9aMP6C-7" target="k62wVjFiB16d4o9aMP6C-18" edge="1">
          <mxGeometry relative="1" as="geometry" />
        </mxCell>
        <mxCell id="k62wVjFiB16d4o9aMP6C-7" value="&lt;h2&gt;Animal Husbandry&lt;/h2&gt;" style="rounded=0;whiteSpace=wrap;html=1;" parent="1" vertex="1">
          <mxGeometry x="610" y="140" width="240" height="50" as="geometry" />
        </mxCell>
        <mxCell id="k62wVjFiB16d4o9aMP6C-28" style="edgeStyle=orthogonalEdgeStyle;rounded=0;orthogonalLoop=1;jettySize=auto;html=1;exitX=0;exitY=0.5;exitDx=0;exitDy=0;entryX=0;entryY=0.5;entryDx=0;entryDy=0;" parent="1" source="k62wVjFiB16d4o9aMP6C-10" target="k62wVjFiB16d4o9aMP6C-26" edge="1">
          <mxGeometry relative="1" as="geometry" />
        </mxCell>
        <mxCell id="k62wVjFiB16d4o9aMP6C-29" style="edgeStyle=orthogonalEdgeStyle;rounded=0;orthogonalLoop=1;jettySize=auto;html=1;exitX=0;exitY=0.5;exitDx=0;exitDy=0;entryX=0;entryY=0.5;entryDx=0;entryDy=0;" parent="1" source="k62wVjFiB16d4o9aMP6C-10" target="k62wVjFiB16d4o9aMP6C-27" edge="1">
          <mxGeometry relative="1" as="geometry" />
        </mxCell>
        <mxCell id="k62wVjFiB16d4o9aMP6C-10" value="&lt;h3&gt;Crop Variety Improvement&lt;/h3&gt;" style="rounded=0;whiteSpace=wrap;html=1;" parent="1" vertex="1">
          <mxGeometry x="20" y="230" width="100" height="40" as="geometry" />
        </mxCell>
        <mxCell id="M5c5dAhxw1YWjsHR_SRw-8" style="edgeStyle=orthogonalEdgeStyle;rounded=0;orthogonalLoop=1;jettySize=auto;html=1;entryX=0;entryY=0.5;entryDx=0;entryDy=0;exitX=0.25;exitY=1;exitDx=0;exitDy=0;" edge="1" parent="1" source="k62wVjFiB16d4o9aMP6C-11" target="M5c5dAhxw1YWjsHR_SRw-7">
          <mxGeometry relative="1" as="geometry">
            <Array as="points">
              <mxPoint x="170" y="290" />
              <mxPoint x="140" y="290" />
              <mxPoint x="140" y="315" />
            </Array>
          </mxGeometry>
        </mxCell>
        <mxCell id="M5c5dAhxw1YWjsHR_SRw-16" style="edgeStyle=orthogonalEdgeStyle;rounded=0;orthogonalLoop=1;jettySize=auto;html=1;entryX=0;entryY=0.5;entryDx=0;entryDy=0;" edge="1" parent="1" source="k62wVjFiB16d4o9aMP6C-11" target="M5c5dAhxw1YWjsHR_SRw-15">
          <mxGeometry relative="1" as="geometry">
            <Array as="points">
              <mxPoint x="170" y="290" />
              <mxPoint x="140" y="290" />
              <mxPoint x="140" y="415" />
            </Array>
          </mxGeometry>
        </mxCell>
        <mxCell id="M5c5dAhxw1YWjsHR_SRw-28" style="edgeStyle=orthogonalEdgeStyle;rounded=0;orthogonalLoop=1;jettySize=auto;html=1;entryX=0;entryY=0.5;entryDx=0;entryDy=0;exitX=0.25;exitY=1;exitDx=0;exitDy=0;" edge="1" parent="1" source="k62wVjFiB16d4o9aMP6C-11" target="M5c5dAhxw1YWjsHR_SRw-27">
          <mxGeometry relative="1" as="geometry">
            <Array as="points">
              <mxPoint x="170" y="290" />
              <mxPoint x="140" y="290" />
              <mxPoint x="140" y="545" />
            </Array>
          </mxGeometry>
        </mxCell>
        <mxCell id="k62wVjFiB16d4o9aMP6C-11" value="&lt;h3&gt;Crop production Management&lt;/h3&gt;" style="rounded=0;whiteSpace=wrap;html=1;" parent="1" vertex="1">
          <mxGeometry x="140" y="230" width="120" height="40" as="geometry" />
        </mxCell>
        <mxCell id="M5c5dAhxw1YWjsHR_SRw-4" value="" style="edgeStyle=orthogonalEdgeStyle;rounded=0;orthogonalLoop=1;jettySize=auto;html=1;" edge="1" parent="1" source="k62wVjFiB16d4o9aMP6C-12" target="M5c5dAhxw1YWjsHR_SRw-1">
          <mxGeometry relative="1" as="geometry" />
        </mxCell>
        <mxCell id="k62wVjFiB16d4o9aMP6C-12" value="&lt;h3&gt;Crop Protection Management&lt;/h3&gt;" style="rounded=0;whiteSpace=wrap;html=1;" parent="1" vertex="1">
          <mxGeometry x="280" y="230" width="110" height="40" as="geometry" />
        </mxCell>
        <mxCell id="k62wVjFiB16d4o9aMP6C-16" value="&lt;h3&gt;Cattle Farming&lt;/h3&gt;" style="rounded=0;whiteSpace=wrap;html=1;" parent="1" vertex="1">
          <mxGeometry x="460" y="220" width="120" height="30" as="geometry" />
        </mxCell>
        <mxCell id="k62wVjFiB16d4o9aMP6C-17" value="&lt;h3&gt;Poultry Farming&lt;/h3&gt;" style="rounded=0;whiteSpace=wrap;html=1;" parent="1" vertex="1">
          <mxGeometry x="590" y="220" width="120" height="30" as="geometry" />
        </mxCell>
        <mxCell id="k62wVjFiB16d4o9aMP6C-18" value="&lt;h3&gt;Beekeeping&lt;/h3&gt;" style="rounded=0;whiteSpace=wrap;html=1;" parent="1" vertex="1">
          <mxGeometry x="750" y="220" width="120" height="30" as="geometry" />
        </mxCell>
        <mxCell id="k62wVjFiB16d4o9aMP6C-19" value="&lt;h3&gt;Fish Production&lt;/h3&gt;" style="rounded=0;whiteSpace=wrap;html=1;" parent="1" vertex="1">
          <mxGeometry x="880" y="220" width="110" height="30" as="geometry" />
        </mxCell>
        <mxCell id="k62wVjFiB16d4o9aMP6C-25" style="edgeStyle=orthogonalEdgeStyle;rounded=0;orthogonalLoop=1;jettySize=auto;html=1;entryX=0.5;entryY=0;entryDx=0;entryDy=0;exitX=1;exitY=0.5;exitDx=0;exitDy=0;" parent="1" source="k62wVjFiB16d4o9aMP6C-7" edge="1" target="k62wVjFiB16d4o9aMP6C-19">
          <mxGeometry relative="1" as="geometry">
            <mxPoint x="980" y="165" as="sourcePoint" />
            <mxPoint x="880" y="220" as="targetPoint" />
          </mxGeometry>
        </mxCell>
        <mxCell id="CCRM8Cbb4xVDo7kMdgdi-2" style="edgeStyle=orthogonalEdgeStyle;rounded=0;orthogonalLoop=1;jettySize=auto;html=1;entryX=0.5;entryY=0;entryDx=0;entryDy=0;" parent="1" source="k62wVjFiB16d4o9aMP6C-26" target="CCRM8Cbb4xVDo7kMdgdi-1" edge="1">
          <mxGeometry relative="1" as="geometry" />
        </mxCell>
        <mxCell id="k62wVjFiB16d4o9aMP6C-26" value="&lt;h4&gt;Hybridization&lt;/h4&gt;" style="rounded=0;whiteSpace=wrap;html=1;" parent="1" vertex="1">
          <mxGeometry x="20" y="290" width="100" height="30" as="geometry" />
        </mxCell>
        <mxCell id="k62wVjFiB16d4o9aMP6C-27" value="&lt;h4&gt;Genetically Modified Crops&lt;/h4&gt;" style="rounded=0;whiteSpace=wrap;html=1;" parent="1" vertex="1">
          <mxGeometry x="20" y="520" width="100" height="30" as="geometry" />
        </mxCell>
        <mxCell id="CCRM8Cbb4xVDo7kMdgdi-4" style="edgeStyle=orthogonalEdgeStyle;rounded=0;orthogonalLoop=1;jettySize=auto;html=1;" parent="1" source="CCRM8Cbb4xVDo7kMdgdi-1" target="CCRM8Cbb4xVDo7kMdgdi-3" edge="1">
          <mxGeometry relative="1" as="geometry" />
        </mxCell>
        <mxCell id="CCRM8Cbb4xVDo7kMdgdi-1" value="&lt;h5&gt;Intergeneric - between different genes&lt;/h5&gt;" style="rounded=0;whiteSpace=wrap;html=1;" parent="1" vertex="1">
          <mxGeometry x="20" y="340" width="100" height="40" as="geometry" />
        </mxCell>
        <mxCell id="CCRM8Cbb4xVDo7kMdgdi-6" style="edgeStyle=orthogonalEdgeStyle;rounded=0;orthogonalLoop=1;jettySize=auto;html=1;entryX=0.5;entryY=0;entryDx=0;entryDy=0;" parent="1" source="CCRM8Cbb4xVDo7kMdgdi-3" target="CCRM8Cbb4xVDo7kMdgdi-5" edge="1">
          <mxGeometry relative="1" as="geometry" />
        </mxCell>
        <mxCell id="CCRM8Cbb4xVDo7kMdgdi-3" value="&lt;h5&gt;Interspecific - between different species&lt;/h5&gt;" style="rounded=0;whiteSpace=wrap;html=1;" parent="1" vertex="1">
          <mxGeometry x="20" y="400" width="100" height="40" as="geometry" />
        </mxCell>
        <mxCell id="CCRM8Cbb4xVDo7kMdgdi-5" value="&lt;h5&gt;Intervarietal - between different varieties&lt;/h5&gt;" style="rounded=0;whiteSpace=wrap;html=1;" parent="1" vertex="1">
          <mxGeometry x="20" y="460" width="100" height="40" as="geometry" />
        </mxCell>
        <mxCell id="M5c5dAhxw1YWjsHR_SRw-6" style="edgeStyle=orthogonalEdgeStyle;rounded=0;orthogonalLoop=1;jettySize=auto;html=1;" edge="1" parent="1" source="M5c5dAhxw1YWjsHR_SRw-1" target="M5c5dAhxw1YWjsHR_SRw-5">
          <mxGeometry relative="1" as="geometry" />
        </mxCell>
        <mxCell id="M5c5dAhxw1YWjsHR_SRw-1" value="&lt;h4&gt;From pest, weed, disease&lt;/h4&gt;" style="rounded=0;whiteSpace=wrap;html=1;" vertex="1" parent="1">
          <mxGeometry x="290" y="290" width="90" height="30" as="geometry" />
        </mxCell>
        <mxCell id="M5c5dAhxw1YWjsHR_SRw-5" value="&lt;h4&gt;By weedicides and pesticides&lt;/h4&gt;" style="rounded=0;whiteSpace=wrap;html=1;" vertex="1" parent="1">
          <mxGeometry x="290" y="340" width="90" height="30" as="geometry" />
        </mxCell>
        <mxCell id="M5c5dAhxw1YWjsHR_SRw-11" style="edgeStyle=orthogonalEdgeStyle;rounded=0;orthogonalLoop=1;jettySize=auto;html=1;entryX=1;entryY=0.5;entryDx=0;entryDy=0;" edge="1" parent="1" source="M5c5dAhxw1YWjsHR_SRw-7" target="M5c5dAhxw1YWjsHR_SRw-9">
          <mxGeometry relative="1" as="geometry">
            <Array as="points">
              <mxPoint x="270" y="320" />
              <mxPoint x="270" y="350" />
            </Array>
          </mxGeometry>
        </mxCell>
        <mxCell id="M5c5dAhxw1YWjsHR_SRw-13" style="edgeStyle=orthogonalEdgeStyle;rounded=0;orthogonalLoop=1;jettySize=auto;html=1;entryX=1;entryY=0.5;entryDx=0;entryDy=0;" edge="1" parent="1" source="M5c5dAhxw1YWjsHR_SRw-7" target="M5c5dAhxw1YWjsHR_SRw-12">
          <mxGeometry relative="1" as="geometry">
            <Array as="points">
              <mxPoint x="270" y="320" />
              <mxPoint x="270" y="380" />
            </Array>
          </mxGeometry>
        </mxCell>
        <mxCell id="M5c5dAhxw1YWjsHR_SRw-7" value="&lt;h4&gt;Nutrient Management&lt;/h4&gt;" style="rounded=0;whiteSpace=wrap;html=1;" vertex="1" parent="1">
          <mxGeometry x="160" y="300" width="100" height="30" as="geometry" />
        </mxCell>
        <mxCell id="M5c5dAhxw1YWjsHR_SRw-9" value="&lt;h5&gt;Organic Manure&lt;/h5&gt;" style="rounded=0;whiteSpace=wrap;html=1;direction=east;" vertex="1" parent="1">
          <mxGeometry x="150" y="340" width="100" height="20" as="geometry" />
        </mxCell>
        <mxCell id="M5c5dAhxw1YWjsHR_SRw-12" value="&lt;h5&gt;Artificial Fertilizer&lt;/h5&gt;" style="rounded=0;whiteSpace=wrap;html=1;" vertex="1" parent="1">
          <mxGeometry x="150" y="370" width="100" height="20" as="geometry" />
        </mxCell>
        <mxCell id="M5c5dAhxw1YWjsHR_SRw-18" style="edgeStyle=orthogonalEdgeStyle;rounded=0;orthogonalLoop=1;jettySize=auto;html=1;entryX=1;entryY=0.5;entryDx=0;entryDy=0;" edge="1" parent="1" source="M5c5dAhxw1YWjsHR_SRw-15" target="M5c5dAhxw1YWjsHR_SRw-17">
          <mxGeometry relative="1" as="geometry">
            <Array as="points">
              <mxPoint x="280" y="415" />
              <mxPoint x="280" y="450" />
            </Array>
          </mxGeometry>
        </mxCell>
        <mxCell id="M5c5dAhxw1YWjsHR_SRw-22" style="edgeStyle=orthogonalEdgeStyle;rounded=0;orthogonalLoop=1;jettySize=auto;html=1;entryX=1;entryY=0.75;entryDx=0;entryDy=0;" edge="1" parent="1" source="M5c5dAhxw1YWjsHR_SRw-15" target="M5c5dAhxw1YWjsHR_SRw-19">
          <mxGeometry relative="1" as="geometry">
            <Array as="points">
              <mxPoint x="280" y="415" />
              <mxPoint x="280" y="485" />
            </Array>
          </mxGeometry>
        </mxCell>
        <mxCell id="M5c5dAhxw1YWjsHR_SRw-26" style="edgeStyle=orthogonalEdgeStyle;rounded=0;orthogonalLoop=1;jettySize=auto;html=1;entryX=1;entryY=0.5;entryDx=0;entryDy=0;" edge="1" parent="1" source="M5c5dAhxw1YWjsHR_SRw-15" target="M5c5dAhxw1YWjsHR_SRw-21">
          <mxGeometry relative="1" as="geometry">
            <Array as="points">
              <mxPoint x="280" y="415" />
              <mxPoint x="280" y="510" />
            </Array>
          </mxGeometry>
        </mxCell>
        <mxCell id="M5c5dAhxw1YWjsHR_SRw-15" value="&lt;h4&gt;Irrigation&lt;/h4&gt;" style="rounded=0;whiteSpace=wrap;html=1;" vertex="1" parent="1">
          <mxGeometry x="160" y="400" width="100" height="30" as="geometry" />
        </mxCell>
        <mxCell id="M5c5dAhxw1YWjsHR_SRw-17" value="&lt;h5&gt;Sprinkler Irrigation&lt;/h5&gt;" style="rounded=0;whiteSpace=wrap;html=1;" vertex="1" parent="1">
          <mxGeometry x="150" y="440" width="100" height="20" as="geometry" />
        </mxCell>
        <mxCell id="M5c5dAhxw1YWjsHR_SRw-19" value="&lt;h5&gt;Pot Irrigation&lt;/h5&gt;" style="rounded=0;whiteSpace=wrap;html=1;" vertex="1" parent="1">
          <mxGeometry x="150" y="470" width="100" height="20" as="geometry" />
        </mxCell>
        <mxCell id="M5c5dAhxw1YWjsHR_SRw-20" style="edgeStyle=orthogonalEdgeStyle;rounded=0;orthogonalLoop=1;jettySize=auto;html=1;exitX=0.5;exitY=1;exitDx=0;exitDy=0;" edge="1" parent="1" source="M5c5dAhxw1YWjsHR_SRw-19" target="M5c5dAhxw1YWjsHR_SRw-19">
          <mxGeometry relative="1" as="geometry" />
        </mxCell>
        <mxCell id="M5c5dAhxw1YWjsHR_SRw-21" value="&lt;h5&gt;Drip Irrigation&lt;/h5&gt;" style="rounded=0;whiteSpace=wrap;html=1;" vertex="1" parent="1">
          <mxGeometry x="150" y="500" width="100" height="20" as="geometry" />
        </mxCell>
        <mxCell id="M5c5dAhxw1YWjsHR_SRw-27" value="&lt;h4&gt;Cropping Patterns&lt;/h4&gt;" style="rounded=0;whiteSpace=wrap;html=1;" vertex="1" parent="1">
          <mxGeometry x="170" y="530" width="90" height="30" as="geometry" />
        </mxCell>
        <mxCell id="M5c5dAhxw1YWjsHR_SRw-29" value="&lt;h5&gt;Intercropping&lt;/h5&gt;" style="rounded=0;whiteSpace=wrap;html=1;" vertex="1" parent="1">
          <mxGeometry x="150" y="570" width="100" height="20" as="geometry" />
        </mxCell>
        <mxCell id="M5c5dAhxw1YWjsHR_SRw-30" value="&lt;h5&gt;Crop Rotation&lt;/h5&gt;" style="rounded=0;whiteSpace=wrap;html=1;" vertex="1" parent="1">
          <mxGeometry x="150" y="600" width="100" height="20" as="geometry" />
        </mxCell>
        <mxCell id="M5c5dAhxw1YWjsHR_SRw-31" value="&lt;h5&gt;Mixed Cropping&lt;/h5&gt;" style="rounded=0;whiteSpace=wrap;html=1;" vertex="1" parent="1">
          <mxGeometry x="150" y="630" width="100" height="20" as="geometry" />
        </mxCell>
      </root>
    </mxGraphModel>
  </diagram>
</mxfile>
